<svg fill="#FFFFFF" xmlns="http://www.w3.org/2000/svg"  viewBox="0 0 24 24" width="288px" height="288px"><path d="M 15 4 L 14.001953 5.1425781 C 14.001953 5.1425781 12.686625 4.9882812 12.015625 4.9882812 L 12 4.9882812 C 11.329 4.9882812 10.013672 5.1425781 10.013672 5.1425781 L 9.0039062 4.0039062 C 9.0039062 4.0039062 6.1811406 4.3226094 5.2441406 4.5996094 C 4.3761406 4.8556094 3.6552344 5.4479531 3.2402344 6.2519531 C 2.3502344 7.9739531 0.997 11.501531 1 17.019531 C 3.126 19.468531 8.0509531 20 8.1269531 20 L 9 18.65625 C 9 18.65625 10.653 19.019531 12 19.019531 L 12.013672 19.019531 C 13.360672 19.019531 15.013672 18.65625 15.013672 18.65625 L 15.900391 19.996094 C 15.900391 19.996094 20.090672 19.509531 23.013672 17.019531 C 23.016672 11.501531 21.663438 7.9729531 20.773438 6.2519531 C 20.358438 5.4489531 19.636531 4.8556094 18.769531 4.5996094 C 17.831531 4.3216094 15 4 15 4 z M 15.40625 5.0566406 C 16.36225 5.1756406 17.909328 5.3875938 18.486328 5.5585938 C 19.097328 5.7395938 19.594766 6.1498906 19.884766 6.7128906 C 20.657766 8.2088906 21.939719 11.441922 22.011719 16.544922 C 20.026719 18.063922 17.506906 18.68925 16.378906 18.90625 L 15.916016 18.207031 C 17.238753 17.7057 18.136719 17.154297 18.136719 17.154297 L 17.613281 16.302734 C 17.613281 16.302734 14.803111 18.001953 12 18.001953 C 9.1968889 18.001953 6.3867187 16.302734 6.3867188 16.302734 L 5.8632812 17.154297 C 5.8632812 17.154297 6.7673053 17.710202 8.0976562 18.212891 L 7.6308594 18.929688 C 6.2718594 18.711688 3.4779063 18.042 2.0039062 16.625 C 2.0649062 11.477 3.3538594 8.2158906 4.1308594 6.7128906 C 4.4208594 6.1478906 4.9163437 5.7395938 5.5273438 5.5585938 C 6.1033437 5.3885938 7.6495625 5.1755937 8.6015625 5.0585938 L 9.2636719 5.8066406 L 9.6113281 6.1972656 L 10.130859 6.1367188 C 10.480859 6.0957187 11.497672 5.9882812 12.013672 5.9882812 C 12.514672 5.9882812 13.534766 6.0957187 13.884766 6.1367188 L 14.408203 6.1972656 L 14.755859 5.8007812 L 15.40625 5.0566406 z M 8.5 10 A 1.5 2 0 0 0 8.5 14 A 1.5 2 0 0 0 8.5 10 z M 15.5 10 A 1.5 2 0 0 0 15.5 14 A 1.5 2 0 0 0 15.5 10 z"/></svg>